<svg width="148" height="85" viewBox="0 0 148 85" fill="none" xmlns="http://www.w3.org/2000/svg">
<path d="M103.832 65.024L102.36 48.256L88.856 49.344L87.32 64.256L80.92 64.896L77.272 22.4L91.864 21.44L89.432 44.416L102.04 44.544L100.184 22.528L114.776 21.568L110.232 64.384L103.832 65.024ZM123.836 39.568L143.324 40L143.948 44.992L127.868 60.88L142.748 59.104L143.036 64L122.348 64.432L122.492 61.504L133.292 43.936L123.98 42.976L123.836 39.568Z" fill="#173679"/>
<path d="M25.28 40C26.688 40 27.9253 40.1707 28.992 40.512C30.6987 42.176 31.9787 44.0107 32.832 46.016C33.728 47.9787 34.176 50.4747 34.176 53.504C34.176 57.5573 32.9387 60.5867 30.464 62.592C28.032 64.5547 24.064 65.536 18.56 65.536C13.056 65.536 7.872 64.2133 3.008 61.568L6.08 55.808C10.7733 58.8373 16.1067 60.4587 22.08 60.672C22.72 58.2827 23.04 55.2747 23.04 51.648C23.04 48.0213 22.72 45.6533 22.08 44.544C18.4533 45.0133 15.296 46.08 12.608 47.744L7.488 47.104L3.52 24.448L4.48 23.04L31.36 22.016L30.208 29.568L16.96 28.416L13.504 43.648C17.344 41.216 21.2693 40 25.28 40ZM49.95 32.08C54.046 32.08 57.326 32.848 59.79 34.384C60.174 35.632 60.366 36.912 60.366 38.224C60.366 41.968 58.942 45.84 56.094 49.84C53.278 53.84 49.79 57.104 45.63 59.632V60.064L60.702 58.576V64H38.67L38.334 60.784C41.79 59.152 44.75 56.288 47.214 52.192C49.678 48.096 50.91 44.304 50.91 40.816C50.91 38.096 50.062 36.224 48.366 35.2L41.07 40.144L38.574 34.96C40.302 34 41.982 33.28 43.614 32.8C45.278 32.32 47.39 32.08 49.95 32.08Z" fill="#173679"/>
<circle cx="71.5" cy="60.5" r="3.5" fill="#DB901C"/>
</svg>
